<?xml version="1.0" encoding="UTF-8"?>
<svg xmlns="http://www.w3.org/2000/svg" xmlns:xlink="http://www.w3.org/1999/xlink" width="854" height="480" viewBox="0 0 854 480">
<defs>
<g>
<g id="glyph-0-0">
<path d="M 2.65625 -1.09375 L 2.65625 -1.828125 L 1.890625 -1.828125 C 1.585938 -1.828125 1.363281 -1.757812 1.21875 -1.625 C 1.070312 -1.5 1 -1.304688 1 -1.046875 C 1 -0.796875 1.070312 -0.597656 1.21875 -0.453125 C 1.363281 -0.316406 1.566406 -0.25 1.828125 -0.25 C 2.078125 -0.25 2.273438 -0.328125 2.421875 -0.484375 C 2.578125 -0.640625 2.65625 -0.84375 2.65625 -1.09375 Z M 3.25 -2.15625 L 3.25 -0.34375 L 3.78125 -0.34375 L 3.78125 0 L 2.65625 0 L 2.65625 -0.375 C 2.519531 -0.21875 2.363281 -0.0976562 2.1875 -0.015625 C 2.019531 0.0546875 1.820312 0.09375 1.59375 0.09375 C 1.207031 0.09375 0.898438 -0.00390625 0.671875 -0.203125 C 0.441406 -0.410156 0.328125 -0.691406 0.328125 -1.046875 C 0.328125 -1.398438 0.457031 -1.675781 0.71875 -1.875 C 0.976562 -2.070312 1.34375 -2.171875 1.8125 -2.171875 L 2.65625 -2.171875 L 2.65625 -2.40625 C 2.65625 -2.664062 2.570312 -2.867188 2.40625 -3.015625 C 2.25 -3.160156 2.03125 -3.234375 1.75 -3.234375 C 1.507812 -3.234375 1.316406 -3.175781 1.171875 -3.0625 C 1.035156 -2.957031 0.945312 -2.800781 0.90625 -2.59375 L 0.59375 -2.59375 L 0.59375 -3.296875 C 0.800781 -3.378906 1.003906 -3.441406 1.203125 -3.484375 C 1.398438 -3.535156 1.59375 -3.5625 1.78125 -3.5625 C 2.257812 -3.5625 2.625 -3.441406 2.875 -3.203125 C 3.125 -2.960938 3.25 -2.613281 3.25 -2.15625 Z "/>
</g>
<g id="glyph-0-1">
</g>
<g id="glyph-0-2">
<path d="M 2.125 1.046875 C 1.59375 0.804688 1.191406 0.429688 0.921875 -0.078125 C 0.660156 -0.597656 0.53125 -1.242188 0.53125 -2.015625 C 0.53125 -2.785156 0.660156 -3.425781 0.921875 -3.9375 C 1.191406 -4.457031 1.59375 -4.832031 2.125 -5.0625 L 2.125 -4.75 C 1.789062 -4.519531 1.550781 -4.195312 1.40625 -3.78125 C 1.257812 -3.363281 1.1875 -2.773438 1.1875 -2.015625 C 1.1875 -1.253906 1.257812 -0.664062 1.40625 -0.25 C 1.550781 0.164062 1.789062 0.488281 2.125 0.71875 Z "/>
</g>
<g id="glyph-0-3">
<path d="M 0.859375 -3.703125 L 0.484375 -3.703125 L 0.484375 -4.578125 C 0.722656 -4.691406 0.957031 -4.78125 1.1875 -4.84375 C 1.425781 -4.914062 1.660156 -4.953125 1.890625 -4.953125 C 2.390625 -4.953125 2.785156 -4.828125 3.078125 -4.578125 C 3.367188 -4.335938 3.515625 -4.003906 3.515625 -3.578125 C 3.515625 -3.109375 3.1875 -2.539062 2.53125 -1.875 C 2.476562 -1.820312 2.4375 -1.785156 2.40625 -1.765625 L 1.171875 -0.53125 L 3.203125 -0.53125 L 3.203125 -1.140625 L 3.59375 -1.140625 L 3.59375 0 L 0.453125 0 L 0.453125 -0.359375 L 1.921875 -1.828125 C 2.253906 -2.148438 2.488281 -2.445312 2.625 -2.71875 C 2.757812 -3 2.828125 -3.285156 2.828125 -3.578125 C 2.828125 -3.910156 2.742188 -4.164062 2.578125 -4.34375 C 2.410156 -4.53125 2.175781 -4.625 1.875 -4.625 C 1.5625 -4.625 1.320312 -4.546875 1.15625 -4.390625 C 0.988281 -4.242188 0.890625 -4.015625 0.859375 -3.703125 Z "/>
</g>
<g id="glyph-0-4">
<path d="M 0.234375 0.640625 C 0.441406 0.492188 0.59375 0.316406 0.6875 0.109375 C 0.78125 -0.0859375 0.828125 -0.332031 0.828125 -0.625 L 0.828125 -0.734375 L 1.46875 -0.734375 C 1.457031 -0.367188 1.375 -0.0546875 1.21875 0.203125 C 1.0625 0.472656 0.820312 0.707031 0.5 0.90625 Z "/>
</g>
<g id="glyph-0-5">
<path d="M 0.46875 1.046875 L 0.46875 0.71875 C 0.800781 0.488281 1.039062 0.164062 1.1875 -0.25 C 1.332031 -0.664062 1.40625 -1.253906 1.40625 -2.015625 C 1.40625 -2.773438 1.332031 -3.363281 1.1875 -3.78125 C 1.039062 -4.195312 0.800781 -4.519531 0.46875 -4.75 L 0.46875 -5.0625 C 1 -4.832031 1.398438 -4.457031 1.671875 -3.9375 C 1.941406 -3.425781 2.078125 -2.785156 2.078125 -2.015625 C 2.078125 -1.242188 1.941406 -0.597656 1.671875 -0.078125 C 1.398438 0.429688 1 0.804688 0.46875 1.046875 Z "/>
</g>
</g>
</defs>
<g fill="rgb(34.509804%, 76.862745%, 86.666667%)" fill-opacity="1">
<use xlink:href="#glyph-0-0" x="30" y="26.188477"/>
<use xlink:href="#glyph-0-1" x="34" y="26.188477"/>
<use xlink:href="#glyph-0-2" x="36" y="26.188477"/>
<use xlink:href="#glyph-0-3" x="39" y="26.188477"/>
<use xlink:href="#glyph-0-4" x="43" y="26.188477"/>
<use xlink:href="#glyph-0-1" x="45" y="26.188477"/>
<use xlink:href="#glyph-0-3" x="47" y="26.188477"/>
<use xlink:href="#glyph-0-5" x="51" y="26.188477"/>
</g>
</svg>
